<svg width="420" height="76" viewBox="0 0 420 76" fill="none" xmlns="http://www.w3.org/2000/svg">
<g clip-path="url(#clip0_229_1158)">
<path d="M401.047 56.1484H378.781L375.211 66.9003H359.998L381.585 6.03101H398.413L420 66.9003H404.617L401.047 56.1484ZM397.308 44.7029L389.914 22.4189L382.605 44.7029H397.308Z" fill="#3183FF"/>
<path d="M352.523 66.9003H337.99L313.683 29.3555V66.9003H299.15V6.03101H313.683L337.99 43.7491V6.03101H352.523V66.9003Z" fill="#3183FF"/>
<path d="M287.769 6.03101V66.9003H273.235V6.03101H287.769Z" fill="#3183FF"/>
<path d="M266.312 6.03101L245.149 66.9003H226.962L205.8 6.03101H221.268L236.056 51.9864L250.929 6.03101H266.312Z" fill="#3183FF"/>
<path d="M198.922 6.03101V66.9003H184.389V6.03101H198.922Z" fill="#3183FF"/>
<path d="M144.142 6.03101C150.431 6.03101 155.927 7.30273 160.63 9.84617C165.332 12.3896 168.959 15.9736 171.508 20.598C174.115 25.1646 175.418 30.4539 175.418 36.4656C175.418 42.4196 174.115 47.7088 171.508 52.3333C168.959 56.9577 165.304 60.5416 160.545 63.0851C155.842 65.6285 150.374 66.9003 144.142 66.9003H121.79V6.03101H144.142ZM143.207 54.0674C148.703 54.0674 152.981 52.5356 156.04 49.4719C159.1 46.4082 160.63 42.0728 160.63 36.4656C160.63 30.8585 159.1 26.4942 156.04 23.3727C152.981 20.2512 148.703 18.6904 143.207 18.6904H136.323V54.0674H143.207Z" fill="#3183FF"/>
<path d="M76.597 10.2454C67.8448 8.88607 58.8977 9.81082 50.5905 12.9334L48.9663 13.5692C38.6516 17.8359 27.3996 19.1839 16.3968 17.4711C11.6658 16.7245 6.92056 15.5924 2.60975 13.4055C1.53369 12.8565 0.703632 11.9091 0.289103 10.7568C-0.125425 9.60444 -0.0931554 8.33415 0.379321 7.2053C0.851798 6.07645 1.72884 5.17419 2.83134 4.68278C3.93384 4.19138 5.17862 4.14789 6.31148 4.56122L6.81669 4.77799C10.221 6.4688 14.121 7.36478 17.8321 7.94766C26.5852 9.30394 35.5323 8.37588 43.8386 5.25007L45.4629 4.62384C55.7775 0.35722 67.0295 -0.990784 78.0324 0.721963C82.6926 1.45417 87.5605 2.62473 91.8194 4.7828C92.3745 5.06537 92.8696 5.45678 93.2764 5.93466C93.6832 6.41254 93.9937 6.96752 94.1901 7.56788C94.3865 8.16824 94.4651 8.80222 94.4213 9.43357C94.3774 10.0649 94.2121 10.6813 93.9347 11.2474C93.366 12.3796 92.3853 13.2396 91.2026 13.643C90.02 14.0464 88.7295 13.9611 87.6077 13.4055C84.1704 11.758 80.327 10.8283 76.597 10.2454ZM76.597 39.1482C67.8448 37.7888 58.8977 38.7136 50.5905 41.8362L48.9663 42.472C38.6516 46.7386 27.3996 48.0866 16.3968 46.3739C11.6658 45.6272 6.92056 44.4952 2.60975 42.3082C1.53369 41.7592 0.703632 40.8118 0.289103 39.6595C-0.125425 38.5072 -0.0931554 37.2369 0.379321 36.1081C0.851798 34.9792 1.72884 34.077 2.83134 33.5856C3.93384 33.0942 5.17862 33.0507 6.31148 33.464L6.81669 33.6808C10.221 35.3716 14.121 36.2676 17.8321 36.8504C26.5852 38.2067 35.5323 37.2787 43.8386 34.1528L45.4629 33.5266C55.7775 29.26 67.0295 27.912 78.0324 29.6247C82.6926 30.3569 87.5605 31.5275 91.8194 33.6856C92.3745 33.9681 92.8696 34.3596 93.2764 34.8374C93.6832 35.3153 93.9937 35.8703 94.1901 36.4707C94.3865 37.071 94.4651 37.705 94.4213 38.3363C94.3774 38.9677 94.2121 39.584 93.9347 40.1502C93.366 41.2824 92.3853 42.1424 91.2026 42.5458C90.02 42.9492 88.7295 42.8639 87.6077 42.3082C84.1704 40.6608 80.327 39.7311 76.597 39.1482ZM47.2382 72.0492L48.9663 71.3748C59.8306 66.943 69.576 66.943 76.597 68.051C80.327 68.6339 84.1704 69.5636 87.603 71.211C88.7248 71.7667 90.0153 71.8519 91.1979 71.4485C92.3806 71.0452 93.3613 70.1852 93.9299 69.0529C94.2074 68.4868 94.3727 67.8705 94.4165 67.2391C94.4604 66.6078 94.3818 65.9738 94.1854 65.3734C93.9889 64.7731 93.6785 64.2181 93.2717 63.7402C92.8649 63.2623 92.3698 62.8709 91.8147 62.5884C87.5605 60.4303 82.6926 59.2597 78.0324 58.5275C67.65 56.9146 57.0362 58.0253 47.191 61.755L45.4629 62.4294C36.7143 66.0568 27.1677 67.2052 17.8321 65.7532C14.6498 65.2522 11.3352 64.5248 8.30399 63.2628L6.81669 62.5884C5.70165 62.0658 4.43102 62.0067 3.27397 62.4235C2.11693 62.8402 1.16436 63.7002 0.618064 64.8211C0.0717703 65.9421 -0.025335 67.236 0.347319 68.4288C0.719972 69.6215 1.53311 70.6194 2.61448 71.211C6.92056 73.4028 11.6658 74.5348 16.3968 75.2719C24.3432 76.5243 35.1887 76.5725 47.2382 72.0492Z" fill="#3183FF"/>
</g>
<defs>
<clipPath id="clip0_229_1158">
<rect width="420" height="76" fill="white"/>
</clipPath>
</defs>
</svg>
